<mxfile host="Electron" modified="2024-01-15T09:59:22.100Z" agent="Mozilla/5.0 (Macintosh; Intel Mac OS X 10_15_7) AppleWebKit/537.36 (KHTML, like Gecko) draw.io/22.1.16 Chrome/120.0.6099.109 Electron/28.1.0 Safari/537.36" etag="_5TLzRDFOX3Qmz2l3jnF" version="22.1.16" type="device">
  <diagram name="Page-1" id="PB--wJ7JkL9qKE580dvo">
    <mxGraphModel dx="954" dy="727" grid="1" gridSize="10" guides="1" tooltips="1" connect="1" arrows="1" fold="1" page="1" pageScale="1" pageWidth="827" pageHeight="1169" math="0" shadow="0">
      <root>
        <mxCell id="0" />
        <mxCell id="1" parent="0" />
        <mxCell id="Ffea7M_iVDjCSf95wKu2-15" value="" style="whiteSpace=wrap;html=1;aspect=fixed;" parent="1" vertex="1">
          <mxGeometry x="220" y="840" width="120" height="120" as="geometry" />
        </mxCell>
        <mxCell id="Ffea7M_iVDjCSf95wKu2-16" value="" style="whiteSpace=wrap;html=1;aspect=fixed;" parent="1" vertex="1">
          <mxGeometry x="230" y="850" width="120" height="120" as="geometry" />
        </mxCell>
        <mxCell id="Ffea7M_iVDjCSf95wKu2-17" value="" style="whiteSpace=wrap;html=1;aspect=fixed;" parent="1" vertex="1">
          <mxGeometry x="240" y="860" width="120" height="120" as="geometry" />
        </mxCell>
        <mxCell id="Ffea7M_iVDjCSf95wKu2-18" value="" style="whiteSpace=wrap;html=1;aspect=fixed;" parent="1" vertex="1">
          <mxGeometry x="30" y="850" width="120" height="120" as="geometry" />
        </mxCell>
        <mxCell id="Ffea7M_iVDjCSf95wKu2-21" value="" style="whiteSpace=wrap;html=1;aspect=fixed;" parent="1" vertex="1">
          <mxGeometry x="416.5" y="867.25" width="65.5" height="65.5" as="geometry" />
        </mxCell>
        <mxCell id="Ffea7M_iVDjCSf95wKu2-22" value="" style="whiteSpace=wrap;html=1;aspect=fixed;" parent="1" vertex="1">
          <mxGeometry x="426.5" y="877.25" width="65.5" height="65.5" as="geometry" />
        </mxCell>
        <mxCell id="Ffea7M_iVDjCSf95wKu2-23" value="" style="whiteSpace=wrap;html=1;aspect=fixed;" parent="1" vertex="1">
          <mxGeometry x="436.5" y="887.25" width="65.5" height="65.5" as="geometry" />
        </mxCell>
        <mxCell id="Ffea7M_iVDjCSf95wKu2-25" value="" style="rounded=0;whiteSpace=wrap;html=1;" parent="1" vertex="1">
          <mxGeometry x="571" y="806.25" width="20" height="207.5" as="geometry" />
        </mxCell>
        <mxCell id="Ffea7M_iVDjCSf95wKu2-26" value="" style="rounded=0;whiteSpace=wrap;html=1;" parent="1" vertex="1">
          <mxGeometry x="601" y="806.25" width="20" height="207.5" as="geometry" />
        </mxCell>
        <mxCell id="Ffea7M_iVDjCSf95wKu2-27" value="" style="whiteSpace=wrap;html=1;aspect=fixed;" parent="1" vertex="1">
          <mxGeometry x="700" y="870" width="80" height="80" as="geometry" />
        </mxCell>
      </root>
    </mxGraphModel>
  </diagram>
</mxfile>
